HIERARCHY
ROOT pelvis
{
  OFFSET 0 100 0
  CHANNELS 6 Xposition Yposition Zposition Zrotation Xrotation Yrotation
  JOINT pelvis_right_femur
  {
    OFFSET -10.78128 -3.44521 -0.5502486
    CHANNELS 3 Zrotation Xrotation Yrotation
    JOINT right_femur_tibia
    {
      OFFSET -0.8047443 -44.0398 -0.1307829
      CHANNELS 3 Zrotation Xrotation Yrotation
      JOINT right_tibia_foot
      {
        OFFSET 3.006224 -47.83518 -5
        CHANNELS 3 Zrotation Xrotation Yrotation
        End Site
        {
          OFFSET 0 -5 15
        }
      }
    }
  }
  JOINT pelvis_left_femur
  {
    OFFSET 10.78128 -3.44521 -0.5502486
    CHANNELS 3 Zrotation Xrotation Yrotation
    JOINT left_femur_tibia
    {
      OFFSET 0.8047443 -44.0398 -0.1307829
      CHANNELS 3 Zrotation Xrotation Yrotation
      JOINT left_tibia_foot
      {
        OFFSET -4.370144 -48.10324 -4.275266
        CHANNELS 3 Zrotation Xrotation Yrotation
        End Site
        {
          OFFSET 0 -5 15
        }
      }
    }
  }
  JOINT pelvis_spine1
  {
    OFFSET 0 6.468898 -3.129235
    CHANNELS 3 Zrotation Xrotation Yrotation
    JOINT spine1
    {
      OFFSET 0 23.15396 4.99043
      CHANNELS 3 Zrotation Xrotation Yrotation
      JOINT spine2
      {
        OFFSET 0 20.79997 -5.064912
        CHANNELS 3 Zrotation Xrotation Yrotation
        JOINT neck
        {
          OFFSET 0 14.38658 9.616178
          CHANNELS 3 Zrotation Xrotation Yrotation
          End Site
          {
            OFFSET 0 20 0
          }
        }
      }
      JOINT right_manubrium
      {
        OFFSET -5.722621 16.35077 3.967754
        CHANNELS 3 Zrotation Xrotation Yrotation
        JOINT right_clavicle
        {
          OFFSET -13.16364 1.694482 -4.693211
          CHANNELS 3 Zrotation Xrotation Yrotation
          JOINT right_humerus
          {
            OFFSET -28.5034 -0.3100689 -2.792744
            CHANNELS 3 Zrotation Xrotation Yrotation
            JOINT right_radius
            {
              OFFSET -25.15693 0.02248979 -1.271978
              CHANNELS 3 Zrotation Xrotation Yrotation
              End Site
              {
                OFFSET -15 0 0
              }
            }
          }
        }
      }
      JOINT left_manubrium
      {
        OFFSET 5.722621 16.35077 3.967754
        CHANNELS 3 Zrotation Xrotation Yrotation
        JOINT left_clavicle
        {
          OFFSET 13.16364 1.694482 -4.693211
          CHANNELS 3 Zrotation Xrotation Yrotation
          JOINT left_humerus
          {
            OFFSET 29.39168 -1.063119 -2.237045
            CHANNELS 3 Zrotation Xrotation Yrotation
            JOINT left_radius
            {
              OFFSET 24.59957 -0.9528479 0.9047498
              CHANNELS 3 Zrotation Xrotation Yrotation
              End Site
              {
                OFFSET 15 -0 -0
              }
            }
          }
        }
      }
    }
  }
}
MOTION
Frames: 7
Frame Time: 0.0416666666667
0 103.5113 0 2.398516 -2.847261 0.2359429 0.8381189 -11.0546 7.033156 -0 38.0637 -0 -5.458384 -18.13629 -3.426308 -7.77004 11.92473 -23.85466 -0 4.396009 -0 7.658051 -15.39846 25.38013 -3.430364 -4.358156 5.479634 3.085758 9.871044 -8.457693 1.92389 21.20659 5.907865 2.52842 -26.61204 9.933718 5.918338 -20.87351 11.24179 86.04996 34.40983 -20.25507 -0 0 17.77899 -4.488733 6.930412 2.324809 6.60663 -20.67604 -0.5940597 -95.72015 26.32397 24.35386 0 0 -14.65972 10.73886 17.51699 2.718733
0.2551842 102.9109 1.453224 1.709555 -1.928468 0.2154218 2.112253 -13.72776 8.31208 -0 38.66954 -0 -5.146035 -17.7736 -3.677736 -7.368969 11.97604 -24.10897 -0 5.072754 -0 6.962769 -16.72311 26.14967 -3.329663 -4.287123 5.426952 3.092285 9.863044 -8.465598 1.904608 21.16988 5.936442 2.561882 -26.59706 9.904012 5.935062 -20.73748 11.24586 86.09309 34.35377 -20.34345 -0 0 17.62255 -4.590446 7.039222 2.358866 6.635617 -20.7245 -0.5728245 -95.66354 26.2523 24.22944 0 0 -14.65979 10.65661 17.49645 2.747188
0.5726285 101.6197 4.038722 0.5066466 -0.7767532 0.302842 2.944741 -22.84922 2.52171 -0 25.83643 -0 -8.480917 -8.489917 -1.212484 -6.679191 12.25353 -19.42635 -0 4.803736 -0 5.952107 -20.34392 22.31505 -1.72744 -2.584539 4.593074 3.148973 9.856551 -8.390451 1.413674 20.3282 6.78122 3.28452 -26.34765 9.47487 6.110877 -18.54131 11.50296 86.76837 35.05175 -21.08096 -0 0 14.19449 -6.613148 9.187805 3.919854 6.78691 -21.33842 -0.685829 -93.01498 23.87556 21.04581 0 0 -17.13577 10.75637 15.10455 1.799833
0.8849782 100.3032 6.902961 -0.1987715 1.2947 0.4600087 4.557722 -28.35243 3.902825 -0 22.66196 -0 -7.412147 -7.138531 -1.266834 -6.432121 12.40594 -18.58941 -0 5.360099 -0 6.123023 -21.67493 21.91768 -1.568021 -2.449613 4.628531 3.186465 9.831928 -8.461879 1.349654 20.21952 6.817503 3.312449 -26.42394 9.405029 6.069237 -18.48298 11.52866 86.98351 35.10445 -21.42069 -0 0 14.00622 -6.345453 9.121982 3.825474 6.708588 -21.41852 -0.7606048 -92.97417 24.23489 21.17381 0 0 -17.82793 10.3327 14.81365 2.396976
1.203517 98.93359 10.08094 -0.4810944 2.93289 0.7023603 5.761327 -31.97851 4.82299 -0 19.40292 -0 -6.743338 -6.284225 -1.041264 -6.553649 12.67631 -18.04942 -0 6.298956 -0 7.627765 -21.9845 22.073 -1.324353 -2.204131 4.640731 3.23072 9.821627 -8.555594 1.239188 20.03348 6.917452 3.39122 -26.4781 9.28725 6.017318 -18.33586 11.58472 87.3039 35.24143 -21.8855 -0 0 13.59766 -6.188621 9.179184 3.838567 6.614261 -21.56136 -0.9040255 -92.70513 24.52925 21.11193 0 0 -18.97066 9.835717 14.22454 3.100357
1.524077 97.56258 13.61253 -0.7647309 4.059413 1.042408 6.826393 -34.42445 5.570192 -0 17.01814 -0 -6.521766 -5.294696 -0.8504658 -6.57922 13.06939 -17.68268 -0 7.793484 -0 8.470297 -22.10163 22.10227 -1.195603 -2.127715 4.73001 3.265428 9.810727 -8.67265 1.165813 19.90106 6.952565 3.424036 -26.55135 9.196774 5.978576 -18.38157 11.62246 87.58579 35.30747 -22.36929 -0 0 13.53191 -5.827814 9.069043 3.670023 6.528548 -21.68591 -1.038362 -92.73541 25.12159 21.40818 0 0 -19.9226 9.219089 13.90509 4.033726
1.828307 96.16443 17.62153 -0.9595659 4.387622 1.496665 7.22708 -35.69267 5.250769 -0 14.84931 -0 -6.870586 -3.633866 -0.5828573 -6.47816 13.87673 -16.99288 -0 9.764788 -0 8.226569 -22.06512 21.3366 -1.064687 -2.048896 4.792854 3.277014 9.810762 -8.769214 1.096617 19.78432 6.993795 3.472619 -26.56473 9.093929 5.955599 -18.38622 11.65677 87.83725 35.34858 -22.7982 -0 0 13.44749 -5.640887 9.045919 3.571638 6.472139 -21.81803 -1.162945 -92.73916 25.60665 21.61414 0 0 -20.73747 8.629561 13.62356 4.892973
